# 3ds Max Wavefront OBJ Exporter v0.97b - (c)2007 guruware
# File Created: 13.11.2016 14:07:43

#
# object rock3_low
#

v  3.6046 1.5161 -2.2597
v  0.3633 1.5399 -3.6303
v  1.4490 4.2651 -3.0926
v  3.9765 4.4679 -1.9539
v  -2.7381 1.3496 -3.5516
v  -1.6352 4.3415 -3.1411
v  -2.4691 4.3899 -2.8141
v  -3.9252 1.0609 -3.0628
v  4.3439 1.1804 0.1450
v  4.2534 4.4571 -1.3729
v  4.4173 3.2218 0.6976
v  3.7152 0.6815 1.3029
v  1.4883 4.0975 2.3298
v  1.4536 0.6622 2.8007
v  -0.4858 1.0006 3.6303
v  -1.6434 4.0304 2.4371
v  -2.5589 1.0452 3.4018
v  3.4169 0.1888 -0.9900
v  -2.6066 4.3128 0.6190
v  -4.4173 1.0988 0.5900
v  -4.0194 1.8573 -2.8261
v  -4.1738 0.3403 -1.1931
v  -3.9778 0.3841 -2.0854
v  -3.3299 0.2363 2.4902
v  -0.3684 0.1752 2.9152
v  -0.2966 0.3563 -2.4364
v  -2.4322 0.4219 -2.3158
v  -1.2265 5.6820 1.9036
v  -1.4334 6.3591 0.2939
v  0.1166 6.2413 1.7108
v  2.1100 8.4920 0.2290
v  3.3486 7.7909 0.1225
v  3.6335 7.5116 -1.3632
v  1.8207 7.2766 -2.3945
v  0.2140 6.4127 -2.5538
v  -1.7969 5.8750 -1.9541
v  0.4951 7.6396 -2.0206
v  0.0230 6.3598 0.1212
v  0.5138 7.7789 -1.3208
v  1.3823 8.6697 0.0389
v  2.2008 8.7743 -0.9452
v  1.8222 8.7418 -1.3046
# 42 vertices

vn 0.6404 -0.3324 -0.6923
vn 0.1696 -0.3255 -0.9302
vn 0.2466 0.1656 -0.9548
vn 0.5218 0.6802 -0.5148
vn -0.1962 -0.2980 -0.9342
vn -0.1839 0.3405 -0.9221
vn -0.6537 0.4956 -0.5719
vn -0.6373 -0.3553 -0.6838
vn 0.9334 -0.3569 0.0369
vn 0.9235 0.1888 -0.3339
vn 0.8831 0.0925 0.4600
vn 0.6214 -0.5565 0.5516
vn 0.3134 0.2550 0.9147
vn 0.4344 -0.4492 0.7807
vn 0.0852 -0.1787 0.9802
vn -0.4408 0.4018 0.8026
vn -0.4549 -0.0803 0.8869
vn 0.4570 -0.8497 -0.2630
vn -0.8512 0.4660 0.2415
vn -0.9720 -0.0167 0.2343
vn -0.8261 0.2707 -0.4942
vn -0.6843 -0.7233 -0.0931
vn -0.5706 -0.7601 -0.3108
vn -0.5864 -0.6535 0.4787
vn 0.0525 -0.8964 0.4402
vn 0.0495 -0.9122 -0.4067
vn -0.0343 -0.9416 -0.3350
vn -0.4329 0.5672 0.7006
vn -0.4830 0.8711 0.0891
vn -0.1295 0.6417 0.7559
vn 0.2582 0.7463 0.6135
vn 0.7020 0.5294 0.4764
vn 0.7890 0.4400 -0.4288
vn 0.2067 0.3879 -0.8982
vn -0.3507 0.5438 -0.7625
vn -0.5971 0.7356 -0.3200
vn -0.6440 0.5643 -0.5165
vn -0.5792 0.8151 0.0113
vn -0.8201 0.5706 -0.0428
vn -0.3617 0.8592 0.3620
vn 0.3499 0.9174 -0.1896
vn 0.0077 0.8728 -0.4879
# 42 vertex normals

vt 0.4395 0.2754 0.0000
vt 0.4045 0.4321 0.0000
vt 0.3633 0.4091 0.0000
vt 0.3983 0.2892 0.0000
vt 0.2963 0.5125 0.0000
vt 0.3042 0.4727 0.0000
vt 0.2084 0.4492 0.0000
vt 0.1881 0.5069 0.0000
vt 0.4295 0.1773 0.0000
vt 0.3881 0.2089 0.0000
vt 0.3387 0.0991 0.0000
vt 0.3493 0.0336 0.0000
vt 0.2075 0.1583 0.0000
vt 0.1790 0.1162 0.0000
vt 0.1274 0.1481 0.0000
vt 0.1342 0.2236 0.0000
vt 0.0999 0.2236 0.0000
vt 0.4839 0.1708 0.0000
vt 0.1349 0.3135 0.0000
vt 0.1069 0.3504 0.0000
vt 0.1473 0.4441 0.0000
vt 0.1085 0.4555 0.0000
vt 0.1687 0.5427 0.0000
vt 0.0140 0.3345 0.0000
vt 0.1000 0.1041 0.0000
vt 0.4340 0.4480 0.0000
vt 0.3231 0.5554 0.0000
vt 0.3587 0.8029 0.0000
vt 0.2900 0.7639 0.0000
vt 0.3307 0.6226 0.0000
vt 0.4722 0.7319 0.0000
vt 0.1705 0.2474 0.0000
vt 0.1649 0.3016 0.0000
vt 0.2146 0.2428 0.0000
vt 0.2805 0.1790 0.0000
vt 0.3393 0.1719 0.0000
vt 0.3538 0.2808 0.0000
vt 0.3294 0.3910 0.0000
vt 0.2802 0.4187 0.0000
vt 0.2220 0.4064 0.0000
vt 0.2792 0.3750 0.0000
vt 0.1857 0.2973 0.0000
vt 0.2404 0.3027 0.0000
vt 0.2648 0.2620 0.0000
vt 0.3088 0.2423 0.0000
vt 0.2995 0.3248 0.0000
vt 0.5119 0.6723 0.0000
vt 0.4012 0.5519 0.0000
vt 0.5167 0.6032 0.0000
vt 0.5367 0.6263 0.0000
# 50 texture coords

g rock3_low
s 1
f 1/1/1 2/2/2 3/3/3 4/4/4 
f 5/5/5 6/6/6 3/3/3 2/2/2 
f 7/7/7 6/6/6 5/5/5 8/8/8 
f 9/9/9 1/1/1 4/4/4 10/10/10 
f 11/11/11 12/12/12 9/9/9 
f 12/12/12 11/11/11 13/13/13 14/14/14 
f 15/15/15 13/13/13 16/16/16 17/17/17 
f 9/9/9 10/10/10 11/11/11 
f 9/9/9 18/18/18 1/1/1 
f 12/12/12 18/18/18 9/9/9 
f 15/15/15 14/14/14 13/13/13 
f 17/17/17 16/16/16 19/19/19 20/20/20 
f 8/8/8 21/21/21 7/7/7 
f 7/7/7 21/21/21 20/20/20 19/19/19 
f 22/22/22 20/20/20 21/21/21 
f 21/21/21 8/8/8 23/23/23 22/22/22 
f 20/20/20 22/22/22 24/24/24 
f 24/24/24 17/17/17 20/20/20 
f 15/15/15 17/17/17 24/24/24 25/25/25 
f 2/2/2 1/1/1 18/18/18 26/26/26 
f 27/27/27 5/5/5 2/2/2 26/26/26 
f 27/27/27 23/23/23 8/8/8 5/5/5 
f 14/14/14 15/15/15 25/25/25 
f 18/28/18 12/29/12 25/30/25 26/31/26 
f 16/16/16 28/32/28 29/33/29 19/19/19 
f 16/16/16 13/13/13 30/34/30 28/32/28 
f 13/13/13 31/35/31 30/34/30 
f 11/11/11 32/36/32 31/35/31 13/13/13 
f 10/10/10 33/37/33 32/36/32 11/11/11 
f 3/3/3 34/38/34 10/10/10 4/4/4 
f 10/10/10 34/38/34 33/37/33 
f 3/3/3 6/6/6 35/39/35 34/38/34 
f 36/40/36 7/7/7 19/19/19 29/33/29 
f 34/38/34 35/39/35 37/41/37 
f 36/40/36 35/39/35 6/6/6 7/7/7 
f 38/42/38 35/39/35 36/40/36 29/33/29 
f 29/33/29 28/32/28 30/34/30 38/42/38 
f 37/41/37 35/39/35 38/42/38 39/43/39 
f 39/43/39 38/42/38 30/34/30 
f 40/44/40 39/43/39 30/34/30 
f 32/36/32 33/37/33 41/45/41 
f 33/37/33 34/38/34 42/46/42 41/45/41 
f 42/46/42 34/38/34 37/41/37 
f 31/35/31 32/36/32 41/45/41 
f 30/34/30 31/35/31 40/44/40 
f 37/41/37 39/43/39 40/44/40 42/46/42 
f 41/45/41 42/46/42 40/44/40 31/35/31 
f 27/47/27 26/31/26 25/30/25 24/48/24 
f 24/48/24 22/49/22 23/50/23 27/47/27 
f 12/12/12 14/14/14 25/25/25 
# 30 polygons - 20 triangles

